<svg width="24" height="24" viewBox="0 0 24 24" fill="none" xmlns="http://www.w3.org/2000/svg">
  <path d="M12 2C11.4477 2 11 2.44772 11 3V4.5C11 4.5 11 4.5 11 4.5C11 4.5 11 4.5 11 4.5V3C11 2.44772 11.4477 2 12 2Z" fill="currentColor"/>
  <path d="M12 2C12.5523 2 13 2.44772 13 3V4.5C13 4.5 13 4.5 13 4.5C13 4.5 13 4.5 13 4.5V3C13 2.44772 12.5523 2 12 2Z" fill="currentColor"/>
  <path d="M18 10C18 6.68629 15.3137 4 12 4C8.68629 4 6 6.68629 6 10V16L4 18V19H20V18L18 16V10Z" stroke="currentColor" stroke-width="2" stroke-linecap="round" stroke-linejoin="round"/>
  <path d="M9 19C9 20.1046 9.89543 21 11 21H13C14.1046 21 15 20.1046 15 19H9Z" fill="currentColor"/>
</svg> 